<?xml version="1.0" standalone="no"?>
<!DOCTYPE svg PUBLIC "-//W3C//DTD SVG 20010904//EN"
 "http://www.w3.org/TR/2001/REC-SVG-20010904/DTD/svg10.dtd">
<svg version="1.0" xmlns="http://www.w3.org/2000/svg"
 width="4286.000000pt" height="4487.000000pt" viewBox="0 0 4286.000000 4487.000000"
 preserveAspectRatio="xMidYMid meet">

<g transform="translate(0.000000,4487.000000) scale(0.100000,-0.100000)"
fill="#000000" stroke="none">
<path d="M20855 44779 c-4440 -121 -8665 -1590 -12210 -4244 -849 -635 -1521
-1220 -2306 -2004 -535 -536 -877 -908 -1309 -1426 -2264 -2714 -3820 -5949
-4519 -9395 -560 -2761 -570 -5631 -30 -8390 573 -2925 1744 -5674 3464 -8130
199 -284 572 -783 789 -1053 91 -115 166 -212 166 -216 0 -15 -497 -515 -876
-880 -627 -604 -731 -714 -852 -894 -91 -135 -132 -219 -132 -271 0 -86 58
-156 130 -156 40 0 159 47 269 107 144 77 328 207 1184 836 456 335 832 607
836 605 4 -2 55 -55 111 -118 1255 -1396 2752 -2667 4335 -3682 3607 -2313
7745 -3470 12057 -3370 288 7 609 17 713 22 105 5 226 11 269 12 l80 3 138
-464 c76 -255 137 -465 136 -467 -8 -7 -191 -24 -381 -35 -367 -20 -512 13
-769 174 -134 84 -191 113 -253 127 -289 66 -581 -333 -443 -604 156 -305 857
-474 1618 -390 116 13 318 48 401 69 25 6 25 6 94 -227 37 -128 72 -237 76
-242 7 -8 806 151 821 163 5 5 -155 544 -187 628 -2 7 36 39 88 74 251 169
438 349 582 564 159 237 264 525 282 774 l6 89 76 12 c1809 280 3438 718 5021
1350 2785 1111 5180 2741 7140 4860 928 1002 1778 2163 2475 3380 1569 2738
2490 5875 2755 9380 94 1258 101 2549 20 3663 -300 4075 -1744 7936 -4195
11212 -326 436 -671 862 -1019 1259 l-157 179 68 30 c567 247 1962 873 2743
1231 211 97 395 180 409 183 43 11 97 75 111 131 22 93 -20 166 -115 201 -81
31 -401 108 -600 146 -404 76 -704 105 -1172 112 -503 7 -862 -16 -1367 -88
-463 -66 -1102 -203 -1581 -338 l-69 -20 -32 27 c-18 15 -126 110 -241 211
-1202 1061 -2597 2027 -4038 2796 -3254 1736 -6909 2595 -10610 2494z m18645
-5513 c152 -16 511 -64 517 -69 1 -2 -100 -45 -225 -96 -1332 -549 -3209
-1357 -4062 -1749 -358 -164 -1088 -530 -1355 -678 -634 -352 -1185 -717
-1648 -1091 -70 -57 -132 -103 -137 -103 -5 0 -36 17 -67 37 -86 54 -215 104
-454 173 -471 136 -958 294 -1107 359 -127 55 -206 100 -290 166 -39 30 -78
55 -86 55 -9 0 -23 -11 -32 -25 -16 -24 -15 -27 12 -66 143 -207 1044 -857
1470 -1061 l101 -48 -155 -158 c-528 -534 -1035 -1144 -1567 -1884 -55 -76
-104 -138 -110 -138 -6 0 -39 11 -73 25 -34 14 -164 54 -290 90 -261 73 -712
212 -912 280 -172 58 -374 158 -467 229 -77 60 -93 65 -117 40 -29 -28 -17
-53 67 -141 107 -112 233 -215 502 -410 348 -252 664 -454 878 -559 42 -21 77
-42 77 -47 0 -4 -31 -54 -68 -110 -299 -445 -699 -1114 -971 -1622 -121 -226
-389 -759 -486 -970 -41 -89 -85 -168 -109 -195 -45 -53 -96 -153 -96 -192 0
-51 -18 -46 -123 31 -27 20 -83 79 -125 131 -152 189 -439 517 -548 625 -108
108 -246 228 -345 303 l-49 36 0 623 c0 537 2 623 14 623 25 0 394 -77 506
-105 186 -47 327 -103 431 -172 47 -31 80 -27 93 9 12 33 -8 58 -115 143 -130
105 -530 348 -836 510 l-93 49 0 759 0 760 87 146 c265 449 580 860 941 1233
l114 117 51 -21 c97 -38 180 -58 406 -93 462 -73 981 -176 1178 -235 122 -36
228 -81 311 -131 35 -21 70 -39 77 -39 20 0 45 29 45 50 0 27 -128 134 -280
235 -156 104 -551 331 -752 431 -131 66 -498 233 -536 245 -13 4 170 154 373
306 700 523 1584 1009 2715 1493 962 411 2381 939 3340 1241 1256 397 2236
602 3190 669 209 14 999 5 1190 -14z m-11360 -177 c-19 -11 -154 -86 -300
-165 -1756 -961 -3144 -1924 -4304 -2986 -83 -76 -153 -138 -157 -138 -3 0
-24 14 -45 31 -60 49 -199 140 -309 204 -296 172 -460 308 -545 453 -43 74
-69 89 -98 60 -38 -38 32 -236 208 -588 127 -253 209 -380 331 -514 l51 -56
-118 -123 c-510 -525 -1054 -1210 -1446 -1820 -61 -95 -112 -173 -113 -175 -5
-6 -459 140 -750 240 -508 175 -656 244 -812 375 -52 44 -80 52 -101 31 -25
-25 -11 -57 61 -139 182 -208 782 -668 1204 -924 l112 -68 -80 -151 c-274
-516 -494 -1023 -674 -1557 -215 -636 -289 -929 -316 -1247 -7 -75 -13 -138
-14 -140 -1 -1 -69 20 -151 48 -602 205 -1289 296 -1974 261 -124 -6 -249 -14
-277 -18 l-53 -6 0 1142 c0 1080 1 1141 18 1141 32 0 543 -90 741 -131 415
-86 572 -135 726 -228 37 -23 73 -41 81 -41 23 0 47 46 35 68 -47 89 -490 374
-963 622 -116 60 -461 221 -555 259 -18 8 -33 18 -33 23 0 5 37 76 82 156 550
989 1197 1785 1987 2446 l151 126 42 -43 c85 -83 232 -144 570 -233 380 -100
501 -154 651 -292 55 -50 60 -53 80 -39 38 25 32 56 -30 149 -81 121 -211 274
-380 448 -164 169 -241 235 -366 314 l-88 55 43 31 c104 77 551 368 738 482
817 497 1654 931 2480 1285 1121 481 2366 881 3680 1184 203 46 980 207 1005
208 6 0 -6 -9 -25 -20z m-20442 -6943 c926 -96 1837 -366 2763 -819 858 -420
1883 -1116 2999 -2037 74 -61 182 -147 239 -191 61 -47 98 -81 90 -83 -372
-129 -1016 -380 -1491 -580 -125 -52 -238 -98 -252 -102 -53 -13 -385 29 -646
82 -1540 313 -2952 1196 -4045 2529 -197 241 -436 575 -607 850 -79 127 -198
331 -198 339 0 35 839 44 1148 12z m28528 -431 c333 -57 565 -224 801 -578
137 -206 251 -478 303 -722 27 -127 38 -396 20 -516 -16 -115 -54 -239 -104
-344 -79 -164 -153 -220 -263 -197 -125 26 -243 148 -243 251 0 16 17 78 39
138 57 160 73 240 74 378 1 211 -43 382 -162 620 -113 228 -192 331 -315 413
-161 108 -337 142 -540 107 -250 -44 -419 -183 -575 -476 -116 -217 -169 -410
-178 -645 -9 -233 18 -370 123 -616 30 -70 54 -142 54 -160 0 -88 -121 -171
-250 -171 -144 -1 -186 62 -229 345 -58 388 -71 681 -37 868 52 293 157 546
314 756 144 194 378 394 542 467 202 88 420 117 626 82z m-10561 -1399 c219
-33 389 -79 562 -152 261 -109 411 -215 777 -548 250 -227 330 -294 454 -376
236 -157 512 -269 810 -330 175 -35 246 -26 273 33 6 13 32 35 58 49 26 15
103 71 171 124 139 108 213 147 501 262 1402 560 3121 670 5109 327 112 -20
206 -37 207 -39 2 -2 12 -63 23 -136 33 -224 67 -323 137 -401 118 -131 352
-139 531 -19 125 85 179 212 142 339 -5 19 -7 37 -5 40 16 15 1035 -253 1876
-494 1118 -320 1649 -457 2594 -665 176 -38 331 -73 344 -76 27 -6 22 -9 -284
-214 -963 -643 -1988 -1161 -3075 -1553 -1283 -463 -2419 -682 -4109 -792
-137 -9 -276 -13 -335 -9 -74 5 -124 2 -186 -9 -50 -10 -196 -21 -355 -27
-533 -20 -828 -30 -830 -28 -2 2 4 32 13 67 47 191 -100 304 -373 287 -87 -5
-169 -16 -241 -31 -17 -4 -30 -34 -75 -174 l-54 -170 -55 -8 c-77 -10 -1786
-10 -2064 1 -205 7 -228 10 -210 23 34 26 811 408 1019 501 609 274 1123 473
2275 880 327 116 717 254 865 307 714 256 1174 390 1662 486 183 36 211 44
232 67 32 35 24 86 -20 126 -31 27 -36 28 -98 22 -255 -23 -971 -186 -1511
-342 -797 -231 -2417 -792 -3250 -1126 -1084 -435 -1961 -893 -2432 -1270
-571 -458 -839 -898 -1287 -2115 -270 -734 -431 -1270 -531 -1768 -149 -744
-164 -1240 -70 -2275 70 -767 180 -1765 235 -2129 148 -985 433 -1923 865
-2851 329 -708 820 -1513 1420 -2330 l107 -146 -40 -44 c-171 -191 -343 -413
-632 -820 -598 -839 -1283 -1690 -1979 -2460 -578 -639 -1398 -1460 -2029
-2032 l-138 -126 -257 151 c-1701 995 -3171 2068 -4552 3321 -417 379 -571
511 -731 628 l-66 48 -6 288 c-11 573 -101 1169 -318 2110 -54 232 -69 313
-64 345 9 62 -21 191 -62 267 -26 50 -49 125 -98 325 -35 143 -66 274 -69 291
l-7 31 248 93 c711 267 1256 521 1763 822 403 240 672 452 1115 877 82 80 158
156 167 170 10 15 18 45 18 68 0 69 -69 133 -143 133 -38 0 -63 -16 -223 -143
-369 -293 -1251 -797 -1874 -1071 -697 -307 -1146 -470 -2650 -961 -337 -110
-454 -156 -570 -223 -47 -27 -76 -38 -93 -35 -63 12 -151 -46 -192 -128 -31
-60 -42 -141 -49 -344 -15 -419 -112 -861 -296 -1345 -177 -465 -439 -945
-820 -1502 -206 -302 -340 -485 -1270 -1738 -318 -428 -559 -764 -954 -1332
-163 -235 -301 -430 -306 -433 -4 -3 -6 3 -4 12 71 327 146 783 179 1098 26
241 31 670 10 840 -21 176 -70 371 -125 500 -23 55 -54 134 -70 175 -63 175
-169 282 -379 384 -91 44 -98 46 -185 46 -127 0 -225 -25 -411 -105 -75 -32
-559 -288 -725 -383 -212 -122 -472 -286 -630 -400 -69 -49 -126 -89 -127 -87
-2 1 13 42 33 91 88 217 127 476 106 707 -25 272 -99 485 -267 767 -31 52 -94
171 -142 264 -47 93 -96 180 -109 193 -63 63 -186 4 -526 -253 -73 -55 -495
-372 -938 -704 -746 -560 -799 -598 -726 -519 1239 1328 2273 2597 3261 3999
87 124 218 309 291 411 287 401 420 647 474 873 55 229 25 427 -91 600 -115
173 -285 288 -599 404 -1193 444 -2564 761 -3850 891 -268 28 -448 39 -773 51
-292 11 -447 27 -586 60 -408 98 -671 377 -786 831 -51 201 -60 291 -60 614 1
307 8 411 56 735 76 522 248 1111 452 1551 l44 96 154 6 c577 24 1204 184
1614 413 258 144 361 228 707 579 361 366 427 446 482 582 65 159 74 392 21
568 -70 237 -212 446 -398 589 -88 67 -353 228 -500 303 -59 30 -107 59 -105
64 3 10 177 153 458 379 1488 1193 3063 2237 4675 3099 238 128 926 473 1168
587 884 417 1612 715 2632 1077 1092 388 1630 531 2320 621 1097 143 1932 148
2615 15 189 -36 369 -88 795 -229 231 -76 451 -144 489 -151 111 -19 337 -7
481 25 66 15 293 85 505 156 1299 436 2481 788 3065 914 173 37 452 83 585 95
63 6 131 13 150 15 85 10 560 -3 655 -18z m5210 -4527 c43 -21 38 -55 -33
-206 -115 -246 -148 -389 -138 -593 7 -148 27 -242 94 -446 60 -181 108 -282
170 -360 92 -113 231 -203 372 -239 85 -22 261 -16 339 10 109 38 235 130 334
245 60 69 140 230 169 335 30 114 28 344 -5 655 -30 269 -30 266 51 303 69 32
219 31 279 -1 72 -38 77 -52 69 -210 -10 -214 -35 -569 -46 -657 -14 -111 -63
-306 -97 -386 -130 -302 -419 -554 -748 -651 -71 -20 -100 -23 -250 -22 -142
0 -183 4 -248 22 -199 55 -353 139 -485 266 -178 171 -261 352 -307 671 -35
237 -17 499 56 852 27 132 101 399 114 412 24 23 263 23 310 0z m-3141 -14477
c104 -133 192 -245 198 -248 5 -3 -35 -52 -89 -107 -202 -209 -401 -465 -788
-1017 -753 -1074 -1575 -2089 -2484 -3070 -471 -507 -1157 -1193 -1666 -1664
-154 -143 -184 -166 -212 -166 -23 0 -94 37 -255 131 -1676 988 -3140 2063
-4481 3291 -267 244 -440 396 -588 514 -115 92 -307 229 -348 250 -30 15 -32
19 -26 57 12 96 50 651 58 842 l2 60 290 -281 c389 -376 600 -570 990 -905
1189 -1023 2448 -1934 3750 -2714 348 -208 468 -276 497 -279 13 -1 37 -10 55
-19 71 -37 66 -41 428 294 1260 1166 2424 2463 3472 3869 275 369 421 576 646
915 216 325 348 508 358 497 3 -4 90 -116 193 -250z m290 -359 c128 -166 581
-703 885 -1053 671 -770 1337 -1499 2626 -2870 679 -723 1086 -1159 1107
-1185 l19 -25 -30 0 c-77 0 -237 -75 -616 -290 -742 -421 -1359 -710 -2397
-1124 -1198 -477 -2286 -834 -2973 -976 -354 -73 -1681 -280 -1790 -280 -11 0
-60 29 -110 65 -287 205 -553 279 -1064 293 l-224 7 -48 155 c-27 85 -47 158
-46 162 5 19 128 -59 193 -122 89 -86 136 -109 225 -110 54 0 77 6 127 31 165
82 298 309 278 477 -33 278 -449 509 -970 538 l-111 7 -57 181 -56 181 166
159 c317 302 1158 1152 1397 1411 1132 1227 2085 2432 2920 3690 150 226 304
451 342 500 70 91 171 205 180 205 3 0 15 -12 27 -27z m-10934 -1894 c55 -44
223 -200 373 -346 1328 -1296 3091 -2647 4717 -3614 l124 -74 -61 -5 c-34 -3
-64 -8 -67 -11 -3 -3 32 -133 79 -290 49 -164 80 -285 74 -287 -29 -11 -180
-133 -252 -205 -323 -324 -519 -827 -427 -1097 12 -36 40 -92 62 -124 l40 -59
-498 6 c-993 11 -1627 70 -2804 258 -821 132 -1517 273 -2026 410 -104 29
-208 56 -231 62 -53 13 -53 14 -8 177 19 68 51 221 71 340 19 118 71 418 114
665 269 1533 474 2942 575 3950 27 273 33 325 40 325 2 0 50 -36 105 -81z
m5763 -4312 c15 -46 27 -90 27 -98 0 -11 -20 -18 -70 -27 -39 -7 -118 -27
-175 -46 l-104 -34 -26 87 c-14 47 -33 106 -41 130 -8 25 -11 48 -6 53 7 7 81
11 282 16 l86 2 27 -83z m492 -412 c207 -31 399 -106 495 -192 40 -36 50 -51
50 -76 0 -35 -45 -121 -79 -151 -21 -19 -21 -19 -78 36 -108 101 -268 177
-460 215 -130 25 -387 23 -513 -4 -197 -43 -341 -115 -460 -233 -163 -160
-254 -399 -220 -573 16 -84 40 -126 100 -181 73 -65 146 -86 299 -86 201 0
464 30 776 88 192 36 208 37 400 35 411 -3 655 -61 878 -210 369 -245 478
-557 341 -978 -40 -124 -136 -311 -211 -410 -304 -405 -872 -723 -1473 -824
-557 -95 -1233 -12 -1440 175 -46 41 -48 60 -19 121 26 54 80 97 111 90 13 -4
69 -36 126 -72 197 -125 351 -189 532 -221 79 -14 137 -15 340 -10 271 6 392
16 552 46 330 62 661 253 849 489 149 188 256 424 279 620 41 334 -128 667
-446 881 -215 146 -403 200 -696 200 -172 0 -314 -18 -525 -66 -298 -67 -463
-68 -656 -3 -252 83 -310 165 -259 365 90 356 333 668 642 824 91 46 216 86
324 104 110 19 320 19 441 1z m-216 -477 c62 -197 111 -361 111 -372 0 -9 -48
-21 -163 -40 -90 -14 -175 -26 -188 -26 -25 0 -28 9 -88 211 -50 167 -60 213
-50 220 8 4 45 13 84 19 38 7 77 13 85 15 8 1 56 3 107 4 l91 1 11 -32z m-530
-293 c27 -93 49 -171 47 -172 -8 -8 -206 -15 -241 -9 l-38 7 5 63 c4 44 16 84
39 131 35 72 117 171 129 158 5 -4 31 -84 59 -178z m879 -837 c17 -51 112
-358 212 -682 l183 -589 -24 -19 c-74 -59 -331 -192 -342 -177 -7 8 -447 1499
-447 1514 0 8 6 15 13 16 6 0 59 6 117 14 58 7 140 13 182 14 l77 1 29 -92z
m746 -504 c13 -34 5 -174 -14 -249 -30 -118 -150 -350 -170 -329 -12 14 -172
534 -167 547 3 10 124 27 328 45 9 1 20 -5 23 -14z m-82 -1636 c48 -160 53
-184 39 -191 -9 -4 -101 -25 -204 -46 -133 -28 -190 -36 -193 -28 -23 62 -82
283 -76 288 4 3 61 27 127 54 66 26 145 61 175 76 30 15 60 28 66 29 6 0 35
-82 66 -182z"/>
<path d="M22695 28260 c-11 -5 -108 -43 -215 -85 -282 -110 -546 -226 -1145
-502 -624 -288 -826 -377 -1190 -525 -400 -163 -565 -239 -1280 -596 -691
-345 -1055 -516 -1145 -538 -268 -64 -262 -64 -560 51 -96 37 -362 130 -590
205 -511 169 -698 244 -1238 499 -111 52 -207 91 -224 91 -65 0 -118 -57 -118
-127 0 -53 15 -66 200 -163 481 -254 907 -510 1370 -824 257 -174 372 -244
511 -310 207 -99 403 -140 561 -119 146 20 204 46 511 230 309 185 751 437
1202 683 386 211 647 362 866 501 616 391 1233 683 2312 1093 153 58 291 113
307 121 50 26 83 87 83 153 0 65 -18 108 -63 146 -26 21 -41 26 -83 25 -29 0
-61 -4 -72 -9z"/>
<path d="M21030 26254 c-433 -52 -839 -191 -1127 -385 -127 -86 -316 -266
-407 -386 -163 -217 -283 -486 -365 -818 -48 -194 -56 -259 -56 -440 0 -196
16 -286 72 -430 134 -340 385 -559 741 -645 217 -52 388 -74 582 -73 351 3
490 27 702 124 61 28 199 89 307 135 238 103 371 172 516 269 217 144 408 328
582 559 110 148 153 249 153 369 0 51 -4 62 -29 88 -19 18 -40 29 -58 29 -26
0 -87 24 -403 155 -63 26 -163 64 -222 84 l-108 37 111 204 c183 339 290 522
335 573 78 87 94 196 40 277 -19 29 -44 47 -98 73 -149 70 -385 139 -609 178
-99 17 -174 22 -374 24 -137 2 -266 1 -285 -1z"/>
<path d="M13245 18764 c-782 -24 -1170 -41 -1620 -69 -2302 -146 -4389 -485
-6373 -1033 -177 -49 -329 -95 -337 -102 -30 -25 -18 -71 42 -160 115 -169
251 -291 409 -367 109 -51 138 -57 382 -80 230 -21 923 -24 1257 -5 1113 63
1721 72 2640 41 786 -26 1621 -99 2398 -209 505 -72 771 -120 1357 -245 807
-172 1074 -212 1480 -222 263 -6 383 3 532 43 247 66 413 202 524 429 90 187
133 361 198 810 37 259 48 372 66 692 13 210 20 393 16 407 -5 19 -16 28 -44
35 -72 20 -750 33 -1782 36 -575 1 -1090 1 -1145 -1z m1343 -129 c2 -2 -12
-27 -31 -56 -19 -30 -71 -124 -117 -209 -141 -263 -214 -370 -389 -575 -89
-104 -325 -342 -373 -377 l-28 -19 0 63 c0 114 -20 241 -54 343 -18 55 -45
139 -60 187 -75 248 -203 479 -330 596 l-46 42 43 1 c365 12 1373 15 1385 4z
m1272 -16 c157 -6 286 -12 288 -14 5 -4 -25 -455 -30 -461 -3 -2 -72 1 -154 6
-130 8 -846 26 -1302 33 l-152 2 44 65 c65 98 131 225 162 314 l28 79 415 -6
c229 -4 544 -12 701 -18z m-2849 -36 c18 -27 67 -93 108 -148 104 -138 191
-266 186 -275 -2 -4 -66 -10 -142 -13 -335 -16 -1930 -99 -2238 -117 -2404
-142 -3862 -334 -5400 -711 l-330 -81 -65 68 c-36 38 -80 88 -98 111 l-33 42
38 11 c1999 571 4138 932 6463 1090 442 30 1144 64 1387 68 l92 2 32 -47z"/>
</g>
</svg>
